<svg width="298" height="52" viewBox="0 0 298 52" fill="none" xmlns="http://www.w3.org/2000/svg">
<path d="M33.152 3.392H43.456V50.752H32.448L10.304 18.88V50.752H0V3.392H11.008L33.152 35.264V3.392Z" fill="black"/>
<path d="M84.0475 36.224H61.1355C61.2635 38.08 61.7008 39.5413 62.4475 40.608C63.1942 41.6533 64.3675 42.4213 65.9675 42.912C67.5888 43.3813 69.8075 43.616 72.6235 43.616C75.5035 43.616 78.6182 43.264 81.9675 42.56V50.24C78.3195 51.0293 74.6715 51.424 71.0235 51.424C66.3302 51.424 62.4688 50.784 59.4395 49.504C56.4315 48.224 54.1915 46.2613 52.7195 43.616C51.2688 40.9493 50.5435 37.5147 50.5435 33.312C50.5435 29.472 51.2155 26.1973 52.5595 23.488C53.9035 20.7787 55.8662 18.72 58.4475 17.312C61.0288 15.904 64.1542 15.2 67.8235 15.2C73.1142 15.2 77.1355 16.7893 79.8875 19.968C82.6608 23.1253 84.0475 27.68 84.0475 33.632V36.224ZM67.6955 21.792C65.5408 21.792 63.9195 22.464 62.8315 23.808C61.7648 25.1307 61.1888 27.296 61.1035 30.304H74.1595C74.0742 27.296 73.4982 25.1307 72.4315 23.808C71.3862 22.464 69.8075 21.792 67.6955 21.792Z" fill="black"/>
<path d="M154.89 15.2C159.007 15.2 162.314 15.68 164.81 16.64C167.306 17.6 169.151 19.1893 170.346 21.408C171.541 23.6053 172.138 26.6133 172.138 30.432V50.752H163.306L162.57 47.392H162.09C160.938 48.736 159.509 49.7387 157.802 50.4C156.095 51.0613 154.207 51.392 152.138 51.392C149.557 51.392 147.349 50.9653 145.514 50.112C143.679 49.2587 142.282 48.064 141.322 46.528C140.383 44.992 139.914 43.2213 139.914 41.216C139.914 37.888 141.151 35.3173 143.626 33.504C146.122 31.6693 150.026 30.5813 155.338 30.24L161.706 29.76V29.632C161.706 27.968 161.418 26.656 160.842 25.696C160.287 24.736 159.381 24.0533 158.122 23.648C156.885 23.2427 155.199 23.04 153.066 23.04C151.551 23.04 149.877 23.168 148.042 23.424C146.207 23.68 144.501 24.0533 142.922 24.544V16.768C144.714 16.256 146.677 15.872 148.81 15.616C150.943 15.3387 152.97 15.2 154.89 15.2ZM155.498 44.256C156.629 44.256 157.727 44.0747 158.794 43.712C159.882 43.3493 160.853 42.7733 161.706 41.984V35.584L156.33 36C154.261 36.1707 152.767 36.608 151.85 37.312C150.954 38.016 150.506 39.008 150.506 40.288C150.506 41.5467 150.922 42.528 151.754 43.232C152.607 43.9147 153.855 44.256 155.498 44.256Z" fill="black"/>
<path d="M180.083 15.744H188.85L189.555 19.2H190.035C191.421 17.92 193.064 16.9387 194.962 16.256C196.861 15.552 198.888 15.2 201.042 15.2C205.074 15.2 208.253 16.3733 210.579 18.72C212.925 21.0667 214.098 24.7253 214.098 29.696V50.752H203.411V30.304C203.411 28.1067 202.952 26.5493 202.035 25.632C201.117 24.6933 199.752 24.224 197.939 24.224C196.595 24.224 195.272 24.48 193.971 24.992C192.691 25.504 191.624 26.2613 190.771 27.264V50.752H180.083V15.744Z" fill="black"/>
<path d="M241.476 42.816C242.457 42.816 243.748 42.6667 245.348 42.368V50.624C244.324 50.8587 243.204 51.0507 241.988 51.2C240.772 51.3493 239.609 51.424 238.5 51.424C229.348 51.424 224.772 47.0293 224.772 38.24V24.16H218.724V15.744H224.772L226.692 3.392H235.46V15.744H245.156V24.16H235.46V36.32C235.46 37.9413 235.663 39.232 236.068 40.192C236.495 41.1307 237.145 41.8027 238.02 42.208C238.895 42.6133 240.047 42.816 241.476 42.816Z" fill="black"/>
<path d="M251.145 50.752V15.744H261.833V50.752H251.145ZM256.489 10.656C254.292 10.656 252.649 10.208 251.561 9.312C250.473 8.39467 249.929 7.072 249.929 5.344C249.929 3.59467 250.473 2.272 251.561 1.376C252.649 0.458667 254.292 0 256.489 0C258.686 0 260.329 0.458667 261.417 1.376C262.505 2.272 263.049 3.59467 263.049 5.344C263.049 7.072 262.505 8.39467 261.417 9.312C260.329 10.208 258.686 10.656 256.489 10.656Z" fill="black"/>
<path d="M288.035 51.424C281.656 51.424 276.792 49.8987 273.443 46.848C270.093 43.7973 268.418 39.296 268.418 33.344C268.418 27.3493 270.168 22.8267 273.667 19.776C277.165 16.7253 282.275 15.2 288.995 15.2C292.237 15.2 295.128 15.4987 297.667 16.096V24.384C294.979 23.872 292.482 23.616 290.178 23.616C286.424 23.616 283.672 24.3947 281.922 25.952C280.194 27.488 279.331 29.9307 279.331 33.28C279.331 36.6293 280.163 39.0827 281.827 40.64C283.491 42.1973 285.997 42.976 289.346 42.976C290.605 42.976 291.864 42.88 293.122 42.688C294.381 42.496 295.896 42.1867 297.667 41.76V50.048C294.744 50.9653 291.533 51.424 288.035 51.424Z" fill="black"/>
<path d="M101.912 50.76L109.816 40.252V25.896L102.488 15.752H90.648L103.416 33.128L90.392 50.76H101.912Z" fill="#FF0000"/>
<path d="M123.872 50.76L115.968 40.252V25.896L123.296 15.752H135.136L122.368 33.128L135.392 50.76H123.872Z" fill="#FF0000"/>
</svg>

